<svg aria-hidden="true" style="position: absolute; width: 0; height: 0; overflow: hidden;" version="1.1" xmlns="http://www.w3.org/2000/svg" xmlns:xlink="http://www.w3.org/1999/xlink">
<defs>
<symbol id="icon-search" viewBox="0 0 32 32">
<path d="M31.008 27.231l-7.58-6.447c-0.784-0.705-1.622-1.029-2.299-0.998 1.789-2.096 2.87-4.815 2.87-7.787 0-6.627-5.373-12-12-12s-12 5.373-12 12 5.373 12 12 12c2.972 0 5.691-1.081 7.787-2.87-0.031 0.677 0.293 1.515 0.998 2.299l6.447 7.58c1.104 1.226 2.907 1.33 4.007 0.23s0.997-2.903-0.23-4.007zM12 20c-4.418 0-8-3.582-8-8s3.582-8 8-8 8 3.582 8 8-3.582 8-8 8z"></path>
</symbol>
<symbol id="icon-star" viewBox="0 0 32 32">
<path fill="#f59e0b" style="fill: var(--color1, #f59e0b)" d="M13.916 1.483c0.643-1.977 3.44-1.977 4.083 0l2.296 7.065c0.287 0.884 1.111 1.483 2.041 1.483h7.429c2.079 0 2.944 2.661 1.262 3.883l-6.010 4.367c-0.752 0.547-1.067 1.515-0.78 2.4l2.296 7.065c0.643 1.978-1.621 3.622-3.303 2.4l-6.010-4.367c-0.752-0.547-1.771-0.547-2.523 0l-6.010 4.367c-1.682 1.222-3.945-0.422-3.303-2.4l2.296-7.065c0.287-0.884-0.027-1.853-0.78-2.4l-6.010-4.367c-1.682-1.222-0.818-3.883 1.262-3.883h7.429c0.93 0 1.754-0.599 2.041-1.483l2.296-7.065z"></path>
</symbol>
</defs>
</svg>
